<svg width="43" height="39" viewBox="0 0 43 39" fill="none" xmlns="http://www.w3.org/2000/svg">
  <defs>
    <linearGradient id="paint0_linear" x1="21.7789" y1="-9.55719" x2="1.52919" y2="-1.69561" gradientUnits="userSpaceOnUse">
      <stop stop-color="#4957F4"/>
      <stop offset="1" stop-color="#6B49F4"/>
    </linearGradient>
  </defs>
  <path fill-rule="evenodd" clip-rule="evenodd" d="M5.42807 21.3385C2.39281 17.065 2.46134 11.3948 5.38023 7.22369C5.04144 10.1745 6.4796 14.2573 9.38728 18.0165L5.42807 21.3385ZM20.1932 8.94972C16.9962 5.4333 13.2253 3.30785 10.2604 3.12894C14.8751 0.97896 20.471 1.89637 24.1523 5.62775L20.1932 8.94972ZM24.8259 6.36797L20.8511 9.70304L20.8511 9.70307L20.0851 10.3458L15.9536 13.8124L26.2194 26.0389H27.2064L31.3353 21.9306L30.1756 20.7709C29.6677 20.263 29.3824 19.5741 29.3824 18.8558C29.3824 18.1375 29.6677 17.4486 30.1756 16.9407L33.2398 13.8766C33.7477 13.3687 34.4366 13.0833 35.1549 13.0833C35.8731 13.0833 36.562 13.3687 37.0699 13.8766L38.2469 15.0536L38.2643 15.0363L42.0961 18.868L29.9605 30.9493L35.7725 37.7778L34.9475 38.48L28.9688 31.4555L21.9808 31.4555H11.375L7.2922 31.4555L1.32276 38.4796L0.497264 37.7781L5.8705 31.4555H0V28.7472C0 28.0289 0.285341 27.34 0.793252 26.8321C1.30116 26.3242 1.99004 26.0389 2.70833 26.0389H24.8048L15.1237 14.5087L10.781 18.1526L10.0149 18.7953L10.0149 18.7953L6.04006 22.1304L5.274 22.7732C5.05776 22.5155 4.85301 22.252 4.65968 21.9833C0.64386 16.4019 1.55603 8.58167 6.90897 4.09023C12.2619 -0.401211 20.1217 0.0587903 24.9207 4.98301C25.1518 5.22008 25.3757 5.4675 25.5919 5.7252L24.8259 6.36797ZM15.3106 13.0465L19.4265 9.59301C17.3198 7.28342 14.9825 5.63188 12.8634 4.77877C10.8551 3.97029 9.22859 3.93824 8.12238 4.48531L15.3106 13.0465ZM7.25881 5.14155L14.4807 13.7428L10.154 17.3732C8.24541 14.8974 7.02494 12.3087 6.55287 10.0737C6.07213 7.79756 6.39777 6.11121 7.25881 5.14155ZM30.9417 17.7068C30.6369 18.0115 30.4657 18.4248 30.4657 18.8558C30.4657 19.2868 30.6369 19.7001 30.9417 20.0049L32.0907 21.1539L37.4529 15.7917L36.3039 14.6426C35.9992 14.3379 35.5858 14.1667 35.1549 14.1667C34.7239 14.1667 34.3105 14.3379 34.0058 14.6426L30.9417 17.7068ZM27.6536 27.1222L38.2624 16.5664L40.5623 18.8663L29.0047 30.3722H1.08333V28.7472C1.08333 28.3162 1.25454 27.9029 1.55928 27.5981C1.86403 27.2934 2.27736 27.1222 2.70833 27.1222H27.6536Z" fill="url(#paint0_linear)"/>
</svg>
