<svg xmlns="http://www.w3.org/2000/svg" width="22" height="32" fill="none" viewBox="0 0 22 32">
  <defs>
    <linearGradient id="paint0_linear" x1="11.382" x2="-.145" y1="-9" y2="-6.26"
      gradientUnits="userSpaceOnUse">
      <stop stop-color="#4957F4" />
      <stop offset="1" stop-color="#6B49F4" />
    </linearGradient>
  </defs>
  <path fill="url(#paint0_linear)" fill-rule="evenodd"
    d="M20.56 30.56c-.28.282-.662.44-1.06.44H8V1h11.5c.398 0 .78.158 1.06.44.282.28.44.662.44 1.06V13h1V2.5c0-.663-.263-1.299-.732-1.768C20.798.263 20.163 0 19.5 0h-17C1.837 0 1.201.263.732.732.263 1.201 0 1.837 0 2.5v27c0 .663.263 1.299.732 1.768.47.469 1.105.732 1.768.732h17c.663 0 1.299-.263 1.768-.732.469-.47.732-1.105.732-1.768V20h-1v9.5c0 .398-.158.78-.44 1.06zM7 31V1H2.5c-.398 0-.78.158-1.06.44-.282.28-.44.662-.44 1.06v27c0 .398.158.78.44 1.06.28.282.662.44 1.06.44H7zm10.44-18.146l2.646 2.646h-8.647v1h8.647l-2.647 2.646.707.708L22 16l-3.854-3.854-.707.708z"
    clip-rule="evenodd" />
</svg>
