<svg width="32" height="37" viewBox="0 0 32 37" fill="none" xmlns="http://www.w3.org/2000/svg">
  <defs>
    <linearGradient id="paint0_linear" x1="16.4542" y1="-10.2889" x2="0.308428" y2="-5.43532" gradientUnits="userSpaceOnUse">
      <stop stop-color="#4957F4"/>
      <stop offset="1" stop-color="#6B49F4"/>
    </linearGradient>
  </defs>
  <path fill-rule="evenodd" clip-rule="evenodd" d="M11.1795 2.13529C11.0725 2.19828 10.9669 2.26425 10.8631 2.33317C9.73126 3.08413 8.8457 4.15174 8.31683 5.40273C8.2243 5.63557 8.1902 5.88754 8.21753 6.13664C8.24504 6.38737 8.33395 6.62744 8.47638 6.83561C8.61881 7.04378 8.81037 7.21362 9.0341 7.33009C9.25783 7.44656 9.50682 7.50607 9.75904 7.50336L9.76539 7.50329L16.4528 7.50331C16.2711 7.40472 16.0918 7.30151 15.915 7.19377C13.8922 5.98005 12.2535 4.22627 11.1795 2.13529ZM12.2444 1.62562C13.2186 3.50876 14.6988 5.08824 16.5239 6.18285L16.5276 6.18506L16.5275 6.18507C17.5101 6.78413 18.5789 7.22827 19.6964 7.50199C19.9202 7.49237 20.1395 7.43384 20.3388 7.33009C20.5625 7.21362 20.7541 7.04378 20.8965 6.83561C21.0389 6.62744 21.1279 6.38737 21.1554 6.13664C21.1827 5.88754 21.1486 5.63557 21.0561 5.40273C20.5272 4.15174 19.6416 3.08413 18.5098 2.33317C17.3765 1.58119 16.0466 1.18011 14.6864 1.18011C13.848 1.18011 13.021 1.33253 12.2444 1.62562ZM10.2106 1.34983C11.5373 0.469524 13.0942 0 14.6864 0C16.2787 0 17.8355 0.469524 19.1623 1.34983C20.489 2.23013 21.5267 3.48213 22.1456 4.94918L22.1496 4.95881C22.3158 5.37299 22.3771 5.82177 22.3284 6.26536C22.2798 6.70895 22.1225 7.1337 21.8705 7.502C21.6303 7.85306 21.3111 8.14251 20.9389 8.3473C21.8719 8.6718 22.7654 9.11336 23.5972 9.66523C25.5389 10.9536 27.0576 12.786 27.9633 14.9331L27.9682 14.9446C28.1973 15.5216 28.2809 16.146 28.2121 16.7629C28.1432 17.3799 27.9238 17.9704 27.5731 18.4826C27.2224 18.9949 26.7512 19.413 26.201 19.7004C25.6514 19.9874 25.0399 20.1352 24.4199 20.1307H21.6038C22.8725 20.5868 24.0884 21.1959 25.2233 21.9495C27.986 23.7838 30.1461 26.3925 31.433 29.4488L31.4379 29.4602C31.7548 30.2596 31.8686 31.125 31.7694 31.9792C31.6701 32.8333 31.3608 33.6495 30.869 34.3549C30.3772 35.0603 29.7183 35.6328 28.9512 36.0213C28.1863 36.4087 27.3376 36.6011 26.4805 36.5814H5.24799C4.396 36.5885 3.55527 36.3864 2.79963 35.9927C2.04318 35.5986 1.3952 35.0246 0.912696 34.3212C0.430197 33.6179 0.127974 32.8067 0.0326223 31.9591C-0.0627294 31.1115 0.051713 30.2534 0.36588 29.4604L0.370518 29.4487C1.65748 26.3924 3.8177 23.7838 6.58041 21.9495C7.71531 21.1959 8.93117 20.5868 10.1999 20.1307H9.67307C9.05314 20.1352 8.44158 19.9874 7.89205 19.7004C7.34181 19.413 6.87062 18.9949 6.51994 18.4826C6.16925 17.9704 5.94982 17.3799 5.88094 16.7629C5.81207 16.146 5.89585 15.5216 6.12494 14.9447L6.12955 14.933C7.03524 12.7859 8.55409 10.9536 10.4959 9.66523C11.0692 9.28481 11.6719 8.95681 12.2966 8.68343H9.76836C9.32329 8.68767 8.88399 8.58239 8.48916 8.37685C8.09333 8.17078 7.75442 7.8703 7.50243 7.502C7.25043 7.1337 7.09314 6.70895 7.04446 6.26536C6.99579 5.82177 7.05723 5.37302 7.22336 4.95884L7.22725 4.94914C7.84608 3.48209 8.88386 2.23013 10.2106 1.34983ZM17.0465 8.86979C14.9483 8.86979 12.8967 9.48852 11.1483 10.6486C9.40175 11.8074 8.03531 13.4551 7.21953 15.3858C7.06349 15.7814 7.00657 16.2093 7.05377 16.632C7.10119 17.0567 7.25226 17.4633 7.49369 17.816C7.73513 18.1686 8.05953 18.4565 8.43836 18.6544C8.81718 18.8522 9.23882 18.9539 9.66619 18.9506L9.67082 18.9506H10.0168C11.4637 16.6894 13.4469 14.8182 15.7919 13.5047C18.2339 12.1368 20.9864 11.4195 23.7854 11.4215L23.7864 11.4215C23.8482 11.4217 23.9099 11.4221 23.9716 11.423C23.6463 11.1454 23.3035 10.8867 22.9447 10.6486C21.1963 9.48852 19.1447 8.86979 17.0465 8.86979ZM25.21 12.6701C24.736 12.6256 24.2602 12.6028 23.7841 12.6016C21.1875 12.5998 18.634 13.2653 16.3687 14.5343C14.417 15.6275 12.7355 17.137 11.4409 18.9506L24.4268 18.9506C24.8542 18.9539 25.2758 18.8522 25.6547 18.6544C26.0335 18.4565 26.3579 18.1686 26.5993 17.816C26.8408 17.4633 26.9918 17.0567 27.0392 16.632C27.0864 16.2092 27.0295 15.7814 26.8735 15.3857C26.4557 14.3971 25.8936 13.4827 25.21 12.6701ZM7.23317 22.9326C9.80241 21.2267 12.8179 20.3168 15.9018 20.3168C18.9858 20.3168 22.0013 21.2267 24.5705 22.9326C24.6303 22.9723 24.6899 23.0124 24.7491 23.0529C21.789 26.0159 18.0983 28.1503 14.0458 29.2365C10.0156 30.3167 5.77665 30.3203 1.7514 29.2528C2.97021 26.6923 4.86328 24.5061 7.23317 22.9326ZM1.31169 30.3567C1.18633 30.8348 1.14977 31.3332 1.20533 31.8271C1.27906 32.4826 1.51276 33.1098 1.88585 33.6537C2.25893 34.1976 2.75998 34.6414 3.3449 34.9461C3.92982 35.2509 4.58067 35.4072 5.24019 35.4013L5.24545 35.4013L26.5018 35.4013C27.1665 35.4175 27.8249 35.2689 28.418 34.9685C29.0112 34.6681 29.5207 34.2254 29.9009 33.68C30.2812 33.1345 30.5204 32.5034 30.5972 31.843C30.6737 31.1845 30.5863 30.5174 30.343 29.9009C29.3287 27.4949 27.7324 25.3874 25.7069 23.763C22.58 26.9369 18.6605 29.2213 14.3513 30.3764C10.076 31.5223 5.57681 31.5137 1.31169 30.3567Z" fill="url(#paint0_linear)"/>
</svg>
