<svg xmlns="http://www.w3.org/2000/svg" width="22" height="32" fill="none" viewBox="0 0 22 32">
  <defs>
    <linearGradient id="paint0_linear" x1="11.382" x2="-.145" y1="-9" y2="-6.26"
      gradientUnits="userSpaceOnUse">
      <stop stop-color="#4957F4" />
      <stop offset="1" stop-color="#6B49F4" />
    </linearGradient>
  </defs>
  <path fill="url(#paint0_linear)" fill-rule="evenodd"
    d="M1.44 1.44C1.72 1.157 2.101 1 2.5 1H14v30H2.5c-.398 0-.78-.158-1.06-.44-.282-.28-.44-.662-.44-1.06V19H0v10.5c0 .663.263 1.299.732 1.768.47.469 1.105.732 1.768.732h17c.663 0 1.299-.263 1.768-.732.469-.47.732-1.105.732-1.768v-27c0-.663-.263-1.299-.732-1.768C20.798.263 20.163 0 19.5 0h-17C1.837 0 1.201.263.732.732.263 1.202 0 1.837 0 2.5V12h1V2.5c0-.398.158-.78.44-1.06zM15 1v30h4.5c.398 0 .78-.158 1.06-.44.282-.28.44-.662.44-1.06v-27c0-.398-.158-.78-.44-1.06-.28-.282-.662-.44-1.06-.44H15zM6 12.854L8.646 15.5H0v1h8.646L6 19.146l.707.708L10.561 16l-3.854-3.854-.707.708z"
    clip-rule="evenodd" />
</svg>
